# xmcd
#
# Track frame offsets:
# 150
# 20810
# 40505
# 58512
# 78807
# 98247
# 119979
# 139410
# 161267
# 183220
# 201670
# 223342
# 241697
# 260257
#
# Disc length: 3706 seconds
#
#
# Revision: 0
# Processed by: cddbd v1.5.2PL0 Copyright (c) Steve Scherf et al.
# Submitted via: FreeRIP 2.944 
#
DISCID=c70e780e
DTITLE=2
DYEAR=1900
DGENRE=
TTITLE0= - ο
TTITLE1=ѵ - ʸ 
TTITLE2=̽ý -    
TTITLE3=起 -  
TTITLE4= - ޸
TTITLE5=ڿ - ״븦 ش'ٴ°
TTITLE6=̾ - Ǵٸ  Ͽ
TTITLE7=輺ȣ -  õ ĿǸ ź ֽϱ
TTITLE8= - ޿
TTITLE9=ڰ -  'ٷ
TTITLE10=ϴ - ϱ
TTITLE11=Ƴ ִ  -  
TTITLE12=ȫ - ﳯ ׳̿͵
TTITLE13=ӱ& - 츮 ó
EXTD=
EXTT0=
EXTT1=
EXTT2=
EXTT3=
EXTT4=
EXTT5=
EXTT6=
EXTT7=
EXTT8=
EXTT9=
EXTT10=
EXTT11=
EXTT12=
EXTT13=
PLAYORDER=
